<?xml version="1.0" encoding="utf-8"?>
<!-- Generator: Adobe Illustrator 24.2.0, SVG Export Plug-In . SVG Version: 6.00 Build 0)  -->
<svg version="1.1" id="Layer_3" xmlns="http://www.w3.org/2000/svg" xmlns:xlink="http://www.w3.org/1999/xlink" x="0px" y="0px"
	 viewBox="0 0 785.2 210.7" style="enable-background:new 0 0 785.2 210.7;" xml:space="preserve">
<style type="text/css">
	.st0{fill:#FF5F00;}
	.st1{fill:#FF8300;}
	.st2{fill:#FFFFFF;}
</style>
<g>
	<circle class="st0" cx="95.1" cy="104.5" r="40.9"/>
	<polygon class="st0" points="95.1,52.7 113.7,34.1 113.7,11.8 76.5,11.8 76.5,34.1 	"/>
	<polygon class="st1" points="69.2,59.7 76,34.2 64.8,14.8 32.6,33.5 43.8,52.8 	"/>
	<polygon class="st0" points="50.2,78.6 43.4,53.2 24,42 5.4,74.2 24.9,85.4 	"/>
	<polygon class="st1" points="43.3,104.5 24.7,85.9 2.3,85.9 2.3,123.1 24.7,123.1 	"/>
	<polygon class="st0" points="50.2,130.4 24.9,123.6 5.4,134.8 24,167 43.4,155.8 	"/>
	<polygon class="st1" points="69.1,149.4 43.8,156.2 32.6,175.6 64.8,194.1 76,174.7 	"/>
	<polygon class="st0" points="95.1,156.3 76.5,174.9 76.5,197.3 113.7,197.3 113.7,174.9 	"/>
	<polygon class="st1" points="121,149.4 114.2,174.7 125.4,194.1 157.6,175.6 146.4,156.2 	"/>
	<polygon class="st0" points="139.9,130.4 146.7,155.8 166.1,167 184.8,134.8 165.4,123.6 	"/>
	<polygon class="st1" points="146.9,104.5 165.5,123.1 187.8,123.1 187.8,85.9 165.5,85.9 	"/>
	<polygon class="st0" points="139.9,78.6 165.4,85.4 184.8,74.2 166.1,42 146.8,53.2 	"/>
	<polygon class="st1" points="121,59.7 146.4,52.9 157.6,33.5 125.4,14.8 114.2,34.2 	"/>
</g>
<g>
	<path class="st2" d="M252.2,33.9c16.3,0,24.4,8,24.4,8l-7.9,14.5c0,0-5.7-5.7-15.1-5.7c-11.8,0-16.5,7.2-16.5,15.3
		c0,9.6,6.3,16.4,15.9,16.4c5.9,0,10.5-3.1,11-3.9v-2.8h-8V62.2h23.6v35.4h-15.1v-2.7c0-1,0.1-1.8,0.2-2h-0.4
		c-0.8,1.1-5.8,5.8-15.9,5.8c-17,0-31-12.7-31-32.3C217.7,48,231.3,33.9,252.2,33.9z"/>
	<path class="st2" d="M357.3,36.2H384c13.5,0,22.7,7.3,22.7,20.2c0,7.1-3.6,13.7-9.4,17.2v0.2c0.2,0.3,1.4,1.9,2.7,4.2l10.8,19.7
		h-20.2l-9.6-19.3h-5.2v19.3h-18.6V36.2z M381.4,64.1c4.2,0,6.5-2.5,6.5-6.5c0-3.9-1.6-6.4-7.2-6.4h-4.9V64L381.4,64.1L381.4,64.1z"
		/>
	<path class="st2" d="M415.4,36.2h25c19,0,31.1,11.2,31.1,30.6s-12.1,30.9-31.1,30.9h-25V36.2z M439.2,82.5
		c8.3,0,13.2-5.3,13.2-15.7c0-10.3-5.2-15.5-13.2-15.5H434v31.2H439.2z"/>
	<path class="st2" d="M548.9,36.2h17.7l15.2,25.2c2.5,4.2,4.4,9.4,4.4,9.4h0.3c0,0-0.7-5.5-0.7-9.4V36.2h17.9v61.5h-18l-15.3-26.4
		c-2.2-3.7-4.4-9.3-4.4-9.3h-0.3c0,0,0.7,5.4,0.7,9.3v26.4h-17.6V36.2z"/>
	<path class="st2" d="M222.4,111.8h20.3l7.7,24.8c1.2,3.9,2.5,9.9,2.5,9.9h0.3c0,0,1.3-5.9,2.5-9.9l7.7-24.8h20.2l4.5,61.5h-17.3
		l-1.7-25.6c-0.3-4.6,0-9.9,0-9.9h-0.3c0,0-1.5,6-2.8,9.9l-5.6,17.5h-14.8l-5.7-17.5c-1.2-3.9-2.8-9.9-2.8-9.9h-0.3
		c0,0,0.2,5.2-0.1,9.9l-1.6,25.6h-17.5L222.4,111.8z"/>
	<path class="st2" d="M325.7,110.3c20.2,0,33.7,13.8,33.7,32c0,18.7-13.5,32.8-33.7,32.8c-20.2,0-33.7-14.1-33.7-32.8
		C292,124.1,305.5,110.3,325.7,110.3z M325.7,158.4c8.2,0,14.2-6.5,14.2-16c0-9.1-5.9-15.3-14.2-15.3s-14.2,6.2-14.2,15.3
		C311.5,151.9,317.5,158.4,325.7,158.4z"/>
	<path class="st2" d="M318.3,35c20.2,0,33.7,13.8,33.7,32c0,18.7-13.5,32.8-33.7,32.8c-20.2,0-33.7-14.1-33.7-32.8
		C284.7,48.8,298.1,35,318.3,35z M318.3,83.1c8.2,0,14.2-6.5,14.2-16c0-9.1-5.9-15.3-14.2-15.3s-14.2,6.2-14.2,15.3
		C304.1,76.6,310.1,83.1,318.3,83.1z"/>
	<path class="st2" d="M509.6,35c20.2,0,33.7,13.8,33.7,32c0,18.7-13.5,32.8-33.7,32.8s-33.7-14.1-33.7-32.8
		C475.9,48.8,489.4,35,509.6,35z M509.6,83.1c8.2,0,14.2-6.5,14.2-16c0-9.1-5.9-15.3-14.2-15.3c-8.2,0-14.2,6.2-14.2,15.3
		C495.4,76.6,501.3,83.1,509.6,83.1z"/>
	<path class="st2" d="M396.7,110.3c20.2,0,33.7,13.8,33.7,32c0,18.7-13.5,32.8-33.7,32.8c-20.2,0-33.7-14.1-33.7-32.8
		C363,124.1,376.6,110.3,396.7,110.3z M396.7,158.4c8.2,0,14.2-6.5,14.2-16c0-9.1-5.9-15.3-14.2-15.3s-14.2,6.2-14.2,15.3
		C382.5,151.9,388.5,158.4,396.7,158.4z"/>
	<path class="st2" d="M436.6,111.8h25c19,0,31.1,11.2,31.1,30.6s-12.1,30.9-31.1,30.9h-25V111.8z M460.4,158.2
		c8.3,0,13.2-5.3,13.2-15.7c0-10.3-5.2-15.5-13.2-15.5h-5.2v31.2H460.4z"/>
	<path class="st2" d="M509.1,149l-20.3-37.1h19.9l5.9,12.7c1.7,3.9,3.5,9.3,3.5,9.3h0.3c0,0,1.8-5.4,3.6-9.3l5.8-12.7h20L527.8,149
		v24.3h-18.6L509.1,149L509.1,149z"/>
</g>
</svg>
