<svg width="435" height="131" viewBox="0 0 435 131" fill="none" xmlns="http://www.w3.org/2000/svg">
<path d="M228.3 70.9703C228.3 73.9063 228.3 85.5533 228.596 88.0983C228.399 88.6853 227.809 89.1743 226.728 89.1743C225.549 87.5113 222.698 84.0853 214.146 74.3953L191.342 48.5563C188.687 45.5213 182.003 37.4963 179.939 35.3423H179.742C179.35 36.5173 179.251 38.7683 179.251 41.7043V63.0423C179.251 67.6423 179.35 80.3663 181.021 83.3023C181.61 84.3783 183.577 84.9663 186.033 85.1623L189.08 85.4553C189.671 86.2383 189.572 87.4133 188.884 87.9023C184.461 87.7063 181.021 87.6083 177.383 87.6083C173.255 87.6083 170.6 87.7063 167.161 87.9023C166.473 87.4133 166.374 86.0433 166.964 85.4553L169.618 85.1623C171.879 84.8683 173.452 84.2813 173.944 83.2043C175.319 79.6803 175.221 67.7403 175.221 63.0423V34.7553C175.221 32.0143 175.123 29.9603 173.059 27.7083C171.683 26.3373 169.323 25.6523 166.964 25.3593L165.293 25.1633C164.703 24.5763 164.703 23.1073 165.49 22.7163C169.618 23.0103 174.827 23.0103 176.597 23.0103C178.171 23.0103 179.841 22.9123 181.119 22.7163C183.085 27.7083 194.683 40.6273 197.927 44.2493L207.462 54.9183C214.244 62.4543 219.061 67.9363 223.681 72.6333H223.878C224.271 72.1443 224.271 70.5783 224.271 68.5223V47.5773C224.271 42.9773 224.173 30.2533 222.305 27.3163C221.714 26.4353 220.142 25.8483 216.21 25.3593L214.539 25.1633C213.851 24.5763 213.949 23.0103 214.736 22.7163C219.258 22.9123 222.599 23.0103 226.335 23.0103C230.562 23.0103 233.117 22.9123 236.46 22.7163C237.245 23.2053 237.245 24.5763 236.656 25.1633L235.28 25.3593C232.135 25.8483 230.168 26.6313 229.776 27.4143C228.104 30.9383 228.3 43.0753 228.3 47.5773V70.9703Z" fill="#224C66"/>
<path d="M256.513 29.7643C263.689 24.1853 272.83 21.4443 283.053 21.4443C288.361 21.4443 295.831 22.5213 300.452 23.7933C301.632 24.0863 302.318 24.2823 303.203 24.1853C303.302 26.4353 303.794 32.6023 304.579 38.5723C304.088 39.2573 302.614 39.3553 301.926 38.7683C300.452 32.1123 296.028 24.4783 281.775 24.4783C266.735 24.4783 253.957 33.9723 253.957 54.2323C253.957 74.7873 267.03 86.1413 283.151 86.1413C295.831 86.1413 301.434 77.9193 303.694 72.1443C304.383 71.6553 305.858 71.8513 306.251 72.5353C305.562 77.6253 303.007 84.0853 301.533 85.9443C300.353 86.1413 299.173 86.5323 298.091 86.9233C295.93 87.7063 288.853 89.1743 282.561 89.1743C273.715 89.1743 265.262 87.4133 258.086 82.6173C250.222 77.2343 244.128 68.3273 244.128 55.7013C244.128 44.8363 249.041 35.5383 256.513 29.7643Z" fill="#224C66"/>
<path d="M328.863 72.9273C328.863 83.2043 329.059 84.4773 335.35 85.1623L338.004 85.4553C338.594 85.9443 338.397 87.6083 337.808 87.9023C332.205 87.7063 328.96 87.6083 325.029 87.6083C320.901 87.6083 317.362 87.7063 313.037 87.9023C312.448 87.6083 312.251 86.0433 312.841 85.4553L314.904 85.1623C320.606 84.3783 320.802 83.2043 320.802 72.9273V36.8113C320.802 28.4913 320.605 26.8273 316.183 26.3373L312.644 25.9463C311.957 25.3593 312.054 23.8913 312.841 23.4993C318.051 22.8143 324.146 22.7163 332.303 22.7163C340.462 22.7163 346.556 23.7933 351.177 26.6313C355.698 29.4693 359.04 34.5593 359.04 41.3123C359.04 50.3173 353.437 54.8203 349.21 56.8753C344.885 58.9313 339.675 59.8123 335.645 59.8123C334.957 59.5183 334.957 58.0503 335.546 57.8543C346.162 55.8963 349.997 49.9263 349.997 41.4113C349.997 31.9173 344.394 25.7503 334.17 25.7503C328.96 25.7503 328.863 26.1423 328.863 29.2743V72.9273Z" fill="#224C66"/>
<path d="M425.881 77.6253C425.881 81.5403 426.471 83.8893 428.241 84.5743C428.536 84.8683 428.536 85.4553 428.141 85.7483C426.962 85.7483 425.194 86.1413 423.326 86.6303C418.117 88.0003 411.04 89.1743 405.731 89.1743C394.033 89.1743 383.318 85.9443 375.75 78.3103C369.853 72.4373 366.708 64.7063 366.708 56.0923C366.708 47.7723 369.46 39.3553 375.554 32.8963C382.14 26.0443 391.872 21.4443 406.713 21.4443C412.316 21.4443 417.527 22.5213 419.197 22.9123C421.064 23.3033 424.113 23.9893 425.291 23.7933C425.291 27.0233 425.881 32.1123 426.766 37.9853C426.471 38.7683 424.702 38.8663 424.113 38.2783C421.36 27.7083 413.988 24.3803 403.961 24.3803C384.893 24.3803 376.536 37.8873 376.536 52.5693C376.536 71.3613 386.269 86.1413 406.026 86.1413C412.12 86.1413 415.758 84.8683 416.838 83.2043C417.33 82.5193 417.821 80.7573 417.821 77.6253V73.7103C417.821 65.4883 417.527 64.9013 411.433 64.2163L407.107 63.7273C406.321 63.3353 406.419 61.5733 407.107 61.2803C409.958 61.4763 415.364 61.5733 421.163 61.5733C424.997 61.5733 428.339 61.4763 431.583 61.2803C432.271 61.6713 432.368 63.1393 431.682 63.7273L430.108 63.9223C425.98 64.4123 425.881 67.1523 425.881 72.1443V77.6253Z" fill="#224C66"/>
<path d="M171.547 109.463H173.127V121.028H171.696L163.931 112.121V121.028H162.369V109.463H163.714L171.547 118.446V109.463Z" fill="#636463"/>
<path d="M178.722 119.521V117.261L177.709 117.65C177.193 117.854 176.828 118.06 176.615 118.268C176.401 118.474 176.295 118.732 176.295 119.041C176.295 119.356 176.395 119.612 176.598 119.811C176.801 120.01 177.062 120.109 177.384 120.109C177.867 120.109 178.313 119.913 178.722 119.521ZM180.211 116.45V119.687C180.211 119.947 180.299 120.076 180.477 120.076C180.661 120.076 180.945 119.941 181.333 119.67V120.59C180.989 120.81 180.714 120.96 180.506 121.041C180.298 121.121 180.08 121.161 179.853 121.161C179.204 121.161 178.823 120.907 178.706 120.399C178.063 120.895 177.379 121.144 176.652 121.144C176.12 121.144 175.676 120.969 175.322 120.618C174.967 120.268 174.791 119.828 174.791 119.298C174.791 118.817 174.963 118.389 175.31 118.01C175.656 117.633 176.147 117.333 176.785 117.112L178.722 116.45V116.044C178.722 115.128 178.262 114.67 177.342 114.67C176.517 114.67 175.712 115.095 174.931 115.945V114.297C175.519 113.607 176.364 113.263 177.467 113.263C178.293 113.263 178.955 113.478 179.454 113.908C179.62 114.046 179.77 114.23 179.903 114.459C180.036 114.688 180.12 114.917 180.156 115.146C180.193 115.375 180.211 115.81 180.211 116.45Z" fill="#636463"/>
<path d="M181.599 114.621L184.442 111.839V113.412H186.862V114.77H184.442V118.497C184.442 119.368 184.805 119.803 185.532 119.803C186.074 119.803 186.648 119.624 187.252 119.265V120.672C186.67 120.998 186.036 121.161 185.348 121.161C184.656 121.161 184.079 120.959 183.619 120.556C183.475 120.435 183.356 120.298 183.261 120.146C183.167 119.995 183.087 119.796 183.024 119.551C182.961 119.305 182.929 118.837 182.929 118.147V114.77H181.599V114.621Z" fill="#636463"/>
<path d="M188.374 121.028H189.888V113.412H188.374V121.028ZM189.122 110.208C189.372 110.208 189.585 110.293 189.762 110.464C189.94 110.636 190.028 110.845 190.028 111.094C190.028 111.336 189.94 111.546 189.762 111.723C189.585 111.899 189.372 111.988 189.122 111.988C188.889 111.988 188.685 111.898 188.507 111.719C188.33 111.54 188.241 111.331 188.241 111.094C188.241 110.862 188.33 110.657 188.507 110.477C188.685 110.297 188.889 110.208 189.122 110.208Z" fill="#636463"/>
<path d="M195.649 114.753C194.922 114.753 194.327 114.99 193.862 115.465C193.396 115.94 193.163 116.544 193.163 117.278C193.163 118.006 193.401 118.601 193.878 119.062C194.355 119.522 194.968 119.753 195.716 119.753C196.458 119.753 197.066 119.52 197.54 119.054C198.015 118.587 198.252 117.99 198.252 117.261C198.252 116.539 198.004 115.94 197.511 115.465C197.018 114.99 196.397 114.753 195.649 114.753ZM195.732 113.395C196.896 113.395 197.863 113.769 198.634 114.517C199.404 115.265 199.789 116.205 199.789 117.336C199.789 118.435 199.398 119.346 198.617 120.072C197.836 120.798 196.852 121.161 195.665 121.161C194.519 121.161 193.56 120.792 192.789 120.056C192.019 119.319 191.633 118.398 191.633 117.294C191.633 116.18 192.023 115.251 192.801 114.509C193.581 113.767 194.557 113.395 195.732 113.395Z" fill="#636463"/>
<path d="M202.982 113.412V114.38C203.658 113.635 204.426 113.263 205.285 113.263C205.762 113.263 206.205 113.386 206.615 113.631C207.025 113.877 207.336 114.213 207.55 114.641C207.763 115.069 207.87 115.746 207.87 116.674V121.028H206.357V116.69C206.357 115.912 206.238 115.356 206 115.022C205.762 114.688 205.363 114.521 204.802 114.521C204.087 114.521 203.481 114.877 202.982 115.589V121.028H201.435V113.412H202.982Z" fill="#636463"/>
<path d="M213.299 119.521V117.261L212.285 117.65C211.77 117.854 211.405 118.06 211.191 118.268C210.979 118.474 210.871 118.732 210.871 119.041C210.871 119.356 210.973 119.612 211.175 119.811C211.377 120.01 211.639 120.109 211.961 120.109C212.443 120.109 212.889 119.913 213.299 119.521ZM214.788 116.45V119.687C214.788 119.947 214.876 120.076 215.054 120.076C215.237 120.076 215.522 119.941 215.911 119.67V120.59C215.566 120.81 215.291 120.96 215.083 121.041C214.875 121.121 214.657 121.161 214.43 121.161C213.782 121.161 213.4 120.907 213.282 120.399C212.64 120.895 211.956 121.144 211.23 121.144C210.697 121.144 210.253 120.969 209.899 120.618C209.544 120.268 209.367 119.828 209.367 119.298C209.367 118.817 209.54 118.389 209.887 118.01C210.232 117.633 210.724 117.333 211.362 117.112L213.299 116.45V116.044C213.299 115.128 212.84 114.67 211.919 114.67C211.093 114.67 210.29 115.095 209.508 115.945V114.297C210.096 113.607 210.94 113.263 212.044 113.263C212.87 113.263 213.531 113.478 214.031 113.908C214.197 114.046 214.347 114.23 214.479 114.459C214.613 114.688 214.697 114.917 214.734 115.146C214.77 115.375 214.788 115.81 214.788 116.45Z" fill="#636463"/>
<path d="M217.282 121.028H218.795V109.463H217.282V121.028Z" fill="#636463"/>
<path d="M235.932 118.346V120.167C234.712 120.83 233.305 121.161 231.709 121.161C230.411 121.161 229.311 120.901 228.407 120.382C227.504 119.864 226.789 119.149 226.263 118.238C225.735 117.328 225.472 116.342 225.472 115.283C225.472 113.599 226.075 112.184 227.281 111.036C228.486 109.888 229.973 109.314 231.741 109.314C232.961 109.314 234.316 109.631 235.807 110.266V112.046C234.449 111.273 233.122 110.887 231.824 110.887C230.494 110.887 229.39 111.305 228.511 112.141C227.632 112.977 227.194 114.024 227.194 115.283C227.194 116.552 227.626 117.595 228.49 118.412C229.355 119.229 230.46 119.638 231.807 119.638C233.215 119.638 234.59 119.207 235.932 118.346Z" fill="#636463"/>
<path d="M241.342 114.753C240.616 114.753 240.02 114.99 239.555 115.465C239.089 115.94 238.856 116.544 238.856 117.278C238.856 118.006 239.094 118.601 239.572 119.062C240.048 119.522 240.661 119.753 241.409 119.753C242.151 119.753 242.759 119.52 243.234 119.054C243.708 118.587 243.944 117.99 243.944 117.261C243.944 116.539 243.698 115.94 243.205 115.465C242.712 114.99 242.09 114.753 241.342 114.753ZM241.425 113.395C242.59 113.395 243.556 113.769 244.327 114.517C245.098 115.265 245.482 116.205 245.482 117.336C245.482 118.435 245.092 119.346 244.309 120.072C243.528 120.798 242.545 121.161 241.359 121.161C240.211 121.161 239.253 120.792 238.483 120.056C237.711 119.319 237.327 118.398 237.327 117.294C237.327 116.18 237.716 115.251 238.495 114.509C239.273 113.767 240.25 113.395 241.425 113.395Z" fill="#636463"/>
<path d="M252.035 121.028V120.051C251.713 120.402 251.345 120.674 250.934 120.869C250.52 121.063 250.109 121.161 249.698 121.161C249.215 121.161 248.771 121.041 248.365 120.8C247.956 120.561 247.65 120.235 247.442 119.824C247.234 119.413 247.128 118.729 247.128 117.774V113.412H248.643V117.752C248.643 118.552 248.757 119.11 248.987 119.427C249.217 119.744 249.62 119.902 250.198 119.902C250.918 119.902 251.53 119.552 252.035 118.851V113.412H253.548V121.028H252.035Z" fill="#636463"/>
<path d="M257.191 113.412V114.38C257.866 113.635 258.634 113.263 259.493 113.263C259.97 113.263 260.413 113.386 260.824 113.631C261.233 113.877 261.546 114.213 261.758 114.641C261.971 115.069 262.079 115.746 262.079 116.674V121.028H260.565V116.69C260.565 115.912 260.447 115.356 260.208 115.022C259.97 114.688 259.571 114.521 259.01 114.521C258.295 114.521 257.689 114.877 257.191 115.589V121.028H255.643V113.412H257.191Z" fill="#636463"/>
<path d="M269.926 119.248V120.738C269.166 121.02 268.425 121.161 267.698 121.161C266.501 121.161 265.546 120.807 264.835 120.101C264.123 119.395 263.765 118.448 263.765 117.261C263.765 116.063 264.112 115.098 264.806 114.364C265.499 113.63 266.409 113.263 267.54 113.263C267.934 113.263 268.287 113.3 268.601 113.374C268.913 113.449 269.3 113.588 269.76 113.793V115.399C268.995 114.913 268.285 114.67 267.632 114.67C266.95 114.67 266.39 114.909 265.952 115.386C265.516 115.864 265.297 116.472 265.297 117.211C265.297 117.99 265.532 118.608 266.007 119.066C266.481 119.524 267.119 119.753 267.923 119.753C268.504 119.753 269.173 119.585 269.926 119.248Z" fill="#636463"/>
<path d="M271.682 121.028H273.194V113.412H271.682V121.028ZM272.43 110.208C272.679 110.208 272.892 110.293 273.07 110.464C273.248 110.636 273.336 110.845 273.336 111.094C273.336 111.336 273.248 111.546 273.07 111.723C272.892 111.899 272.679 111.988 272.43 111.988C272.197 111.988 271.992 111.898 271.814 111.719C271.637 111.54 271.548 111.331 271.548 111.094C271.548 110.862 271.637 110.657 271.814 110.477C271.992 110.297 272.197 110.208 272.43 110.208Z" fill="#636463"/>
<path d="M275.415 121.028H276.927V109.463H275.415V121.028Z" fill="#636463"/>
<path d="M287.42 114.753C286.694 114.753 286.098 114.99 285.632 115.465C285.166 115.94 284.933 116.544 284.933 117.278C284.933 118.006 285.172 118.601 285.649 119.062C286.125 119.522 286.738 119.753 287.486 119.753C288.229 119.753 288.837 119.52 289.311 119.054C289.785 118.587 290.022 117.99 290.022 117.261C290.022 116.539 289.775 115.94 289.282 115.465C288.788 114.99 288.167 114.753 287.42 114.753ZM287.502 113.395C288.666 113.395 289.634 113.769 290.404 114.517C291.174 115.265 291.561 116.205 291.561 117.336C291.561 118.435 291.17 119.346 290.387 120.072C289.606 120.798 288.621 121.161 287.436 121.161C286.289 121.161 285.33 120.792 284.56 120.056C283.788 119.319 283.404 118.398 283.404 117.294C283.404 116.18 283.793 115.251 284.572 114.509C285.35 113.767 286.327 113.395 287.502 113.395Z" fill="#636463"/>
<path d="M294.752 113.412V114.38C295.428 113.635 296.195 113.263 297.055 113.263C297.532 113.263 297.975 113.386 298.386 113.631C298.795 113.877 299.108 114.213 299.321 114.641C299.535 115.069 299.64 115.746 299.64 116.674V121.028H298.128V116.69C298.128 115.912 298.008 115.356 297.77 115.022C297.532 114.688 297.133 114.521 296.572 114.521C295.859 114.521 295.251 114.877 294.752 115.589V121.028H293.206V113.412H294.752Z" fill="#636463"/>
<path d="M309.992 110.92H308.271V114.538H310.091C310.768 114.538 311.289 114.379 311.656 114.062C312.02 113.744 312.204 113.291 312.204 112.7C312.204 111.513 311.468 110.92 309.992 110.92ZM306.6 121.028V109.446H310.283C311.392 109.446 312.276 109.744 312.935 110.34C313.596 110.937 313.925 111.737 313.925 112.741C313.925 113.415 313.756 114.011 313.418 114.529C313.08 115.048 312.617 115.425 312.029 115.659C311.441 115.894 310.598 116.011 309.5 116.011H308.271V121.028H306.6Z" fill="#636463"/>
<path d="M316.785 113.412V115.159L316.867 115.026C317.6 113.851 318.33 113.263 319.063 113.263C319.633 113.263 320.229 113.55 320.85 114.124L320.052 115.448C319.526 114.952 319.039 114.703 318.588 114.703C318.101 114.703 317.678 114.935 317.322 115.399C316.963 115.862 316.785 116.412 316.785 117.046V121.028H315.263V113.412H316.785Z" fill="#636463"/>
<path d="M325.058 114.753C324.331 114.753 323.735 114.99 323.269 115.465C322.804 115.94 322.57 116.544 322.57 117.278C322.57 118.006 322.809 118.601 323.286 119.062C323.763 119.522 324.376 119.753 325.123 119.753C325.866 119.753 326.475 119.52 326.949 119.054C327.422 118.587 327.66 117.99 327.66 117.261C327.66 116.539 327.412 115.94 326.919 115.465C326.425 114.99 325.805 114.753 325.058 114.753ZM325.14 113.395C326.305 113.395 327.272 113.769 328.041 114.517C328.812 115.265 329.198 116.205 329.198 117.336C329.198 118.435 328.807 119.346 328.025 120.072C327.243 120.798 326.26 121.161 325.074 121.161C323.927 121.161 322.968 120.792 322.196 120.056C321.426 119.319 321.042 118.398 321.042 117.294C321.042 116.18 321.43 115.251 322.209 114.509C322.988 113.767 323.965 113.395 325.14 113.395Z" fill="#636463"/>
<path d="M332.325 115.399V119.521C332.84 119.676 333.369 119.753 333.911 119.753C334.583 119.753 335.13 119.516 335.554 119.041C335.978 118.566 336.191 117.957 336.191 117.211C336.191 116.456 335.992 115.84 335.595 115.365C335.199 114.891 334.683 114.653 334.045 114.653C333.479 114.653 332.906 114.902 332.325 115.399ZM330.81 109.463H332.325V113.958C332.978 113.483 333.676 113.246 334.419 113.246C335.39 113.246 336.182 113.61 336.797 114.339C337.412 115.068 337.72 116.003 337.72 117.145C337.72 118.371 337.353 119.346 336.618 120.072C335.884 120.798 334.902 121.161 333.671 121.161C333.178 121.161 332.658 121.108 332.112 121.003C331.565 120.899 331.132 120.766 330.81 120.606V109.463Z" fill="#636463"/>
<path d="M339.422 121.028H340.936V109.463H339.422V121.028Z" fill="#636463"/>
<path d="M344.297 116.45H348.146C348.108 115.849 347.927 115.385 347.605 115.059C347.285 114.733 346.852 114.571 346.309 114.571C345.765 114.571 345.321 114.733 344.975 115.059C344.627 115.385 344.402 115.849 344.297 116.45ZM349.643 117.353H344.264C344.302 118.081 344.548 118.66 344.999 119.091C345.451 119.521 346.034 119.737 346.749 119.737C347.748 119.737 348.668 119.428 349.509 118.809V120.283C349.044 120.592 348.583 120.813 348.125 120.945C347.667 121.078 347.132 121.144 346.517 121.144C345.674 121.144 344.992 120.97 344.472 120.623C343.951 120.275 343.534 119.807 343.22 119.219C342.907 118.631 342.75 117.952 342.75 117.179C342.75 116.02 343.08 115.077 343.739 114.352C344.401 113.626 345.256 113.263 346.309 113.263C347.324 113.263 348.132 113.616 348.736 114.322C349.34 115.029 349.643 115.976 349.643 117.162V117.353Z" fill="#636463"/>
<path d="M357.549 115.498V121.028H356.028V116.79C356.028 115.945 355.913 115.356 355.687 115.022C355.459 114.688 355.064 114.521 354.498 114.521C354.183 114.521 353.893 114.593 353.63 114.736C353.366 114.88 353.065 115.133 352.728 115.498V121.028H351.214V113.412H352.728V114.413C353.497 113.646 354.251 113.263 354.988 113.263C355.959 113.263 356.709 113.721 357.243 114.637C358.051 113.71 358.896 113.246 359.778 113.246C360.52 113.246 361.132 113.517 361.611 114.058C362.091 114.599 362.33 115.423 362.33 116.533V121.028H360.817V116.517C360.817 115.882 360.687 115.396 360.427 115.059C360.167 114.722 359.792 114.554 359.303 114.554C358.677 114.554 358.093 114.869 357.549 115.498Z" fill="#636463"/>
<path d="M375.624 115.333H379.523V120.233C378.092 120.852 376.673 121.161 375.267 121.161C373.343 121.161 371.807 120.602 370.657 119.484C369.507 118.367 368.93 116.988 368.93 115.349C368.93 113.622 369.527 112.184 370.719 111.036C371.91 109.888 373.403 109.314 375.199 109.314C375.854 109.314 376.474 109.384 377.063 109.525C377.649 109.666 378.392 109.923 379.291 110.299V111.988C377.904 111.187 376.531 110.788 375.167 110.788C373.897 110.788 372.827 111.218 371.957 112.079C371.087 112.94 370.652 113.997 370.652 115.249C370.652 116.563 371.087 117.637 371.957 118.47C372.827 119.304 373.947 119.72 375.316 119.72C375.981 119.72 376.777 119.568 377.703 119.265L377.86 119.215V116.806H375.624V115.333Z" fill="#636463"/>
<path d="M385.06 119.521V117.261L384.046 117.65C383.531 117.854 383.166 118.06 382.953 118.268C382.738 118.474 382.633 118.732 382.633 119.041C382.633 119.356 382.733 119.612 382.937 119.811C383.139 120.01 383.4 120.109 383.722 120.109C384.204 120.109 384.65 119.913 385.06 119.521ZM386.548 116.45V119.687C386.548 119.947 386.637 120.076 386.815 120.076C386.997 120.076 387.284 119.941 387.67 119.67V120.59C387.328 120.81 387.052 120.96 386.844 121.041C386.636 121.121 386.418 121.161 386.191 121.161C385.542 121.161 385.16 120.907 385.043 120.399C384.401 120.895 383.716 121.144 382.989 121.144C382.458 121.144 382.014 120.969 381.66 120.618C381.305 120.268 381.128 119.828 381.128 119.298C381.128 118.817 381.301 118.389 381.648 118.01C381.994 117.633 382.485 117.333 383.123 117.112L385.06 116.45V116.044C385.06 115.128 384.6 114.67 383.68 114.67C382.855 114.67 382.051 115.095 381.269 115.945V114.297C381.856 113.607 382.702 113.263 383.805 113.263C384.631 113.263 385.293 113.478 385.792 113.908C385.958 114.046 386.109 114.23 386.242 114.459C386.373 114.688 386.458 114.917 386.495 115.146C386.531 115.375 386.548 115.81 386.548 116.45Z" fill="#636463"/>
<path d="M395.279 115.498V121.028H393.756V116.79C393.756 115.945 393.643 115.356 393.416 115.022C393.189 114.688 392.792 114.521 392.228 114.521C391.912 114.521 391.621 114.593 391.358 114.736C391.095 114.88 390.795 115.133 390.456 115.498V121.028H388.943V113.412H390.456V114.413C391.226 113.646 391.98 113.263 392.718 113.263C393.688 113.263 394.438 113.721 394.972 114.637C395.781 113.71 396.625 113.246 397.505 113.246C398.25 113.246 398.86 113.517 399.34 114.058C399.819 114.599 400.058 115.423 400.058 116.533V121.028H398.547V116.517C398.547 115.882 398.416 115.396 398.155 115.059C397.895 114.722 397.52 114.554 397.032 114.554C396.406 114.554 395.822 114.869 395.279 115.498Z" fill="#636463"/>
<path d="M403.584 115.399V119.521C404.1 119.676 404.628 119.753 405.171 119.753C405.843 119.753 406.39 119.516 406.814 119.041C407.238 118.566 407.451 117.957 407.451 117.211C407.451 116.456 407.252 115.84 406.855 115.365C406.459 114.891 405.942 114.653 405.305 114.653C404.74 114.653 404.165 114.902 403.584 115.399ZM402.07 109.463H403.584V113.958C404.238 113.483 404.936 113.246 405.679 113.246C406.649 113.246 407.442 113.61 408.056 114.339C408.672 115.068 408.979 116.003 408.979 117.145C408.979 118.371 408.612 119.346 407.879 120.072C407.143 120.798 406.162 121.161 404.931 121.161C404.438 121.161 403.918 121.108 403.371 121.003C402.825 120.899 402.392 120.766 402.07 120.606V109.463Z" fill="#636463"/>
<path d="M410.683 121.028H412.197V109.463H410.683V121.028Z" fill="#636463"/>
<path d="M414.416 121.028H415.93V113.412H414.416V121.028ZM415.165 110.208C415.413 110.208 415.627 110.293 415.804 110.464C415.983 110.636 416.071 110.845 416.071 111.094C416.071 111.336 415.983 111.546 415.804 111.723C415.627 111.899 415.413 111.988 415.165 111.988C414.932 111.988 414.728 111.898 414.55 111.719C414.371 111.54 414.284 111.331 414.284 111.094C414.284 110.862 414.371 110.657 414.55 110.477C414.728 110.297 414.932 110.208 415.165 110.208Z" fill="#636463"/>
<path d="M419.631 113.412V114.38C420.308 113.635 421.075 113.263 421.934 113.263C422.41 113.263 422.855 113.386 423.265 113.631C423.674 113.877 423.987 114.213 424.2 114.641C424.412 115.069 424.52 115.746 424.52 116.674V121.028H423.006V116.69C423.006 115.912 422.887 115.356 422.65 115.022C422.41 114.688 422.012 114.521 421.452 114.521C420.737 114.521 420.13 114.877 419.631 115.589V121.028H418.084V113.412H419.631Z" fill="#636463"/>
<path d="M429.082 114.72C428.672 114.72 428.323 114.858 428.035 115.133C427.747 115.41 427.603 115.741 427.603 116.127C427.603 116.519 427.744 116.843 428.026 117.1C428.309 117.356 428.666 117.485 429.098 117.485C429.526 117.485 429.882 117.354 430.167 117.092C430.453 116.83 430.596 116.502 430.596 116.111C430.596 115.713 430.451 115.382 430.164 115.117C429.876 114.852 429.514 114.72 429.082 114.72ZM428.725 121.384C428.214 121.384 427.797 121.492 427.473 121.707C427.149 121.922 426.987 122.198 426.987 122.535C426.987 123.318 427.696 123.71 429.115 123.71C429.786 123.71 430.306 123.612 430.674 123.416C431.043 123.221 431.227 122.943 431.227 122.584C431.227 122.231 430.994 121.943 430.528 121.72C430.063 121.496 429.462 121.384 428.725 121.384ZM426.239 116.044C426.239 115.233 426.537 114.592 427.132 114.12C427.728 113.648 428.543 113.412 429.572 113.412H432.724V114.587H431.178C431.477 114.891 431.685 115.167 431.801 115.415C431.917 115.664 431.976 115.948 431.976 116.268C431.976 116.666 431.861 117.056 431.635 117.439C431.407 117.823 431.115 118.117 430.758 118.321C430.4 118.525 429.813 118.688 428.999 118.809C428.428 118.892 428.142 119.088 428.142 119.397C428.142 119.574 428.25 119.719 428.464 119.832C428.675 119.945 429.063 120.062 429.622 120.184C430.558 120.388 431.162 120.548 431.431 120.664C431.699 120.78 431.942 120.945 432.158 121.161C432.525 121.525 432.707 121.983 432.707 122.535C432.707 123.258 432.384 123.834 431.738 124.265C431.093 124.696 430.229 124.911 429.148 124.911C428.056 124.911 427.185 124.694 426.534 124.261C425.882 123.828 425.557 123.247 425.557 122.519C425.557 121.486 426.198 120.821 427.477 120.523C426.967 120.198 426.712 119.875 426.712 119.555C426.712 119.312 426.822 119.091 427.041 118.892C427.259 118.694 427.555 118.547 427.926 118.454C426.801 117.957 426.239 117.154 426.239 116.044Z" fill="#636463"/>
<path d="M161.938 101.291H434.167V100.822H161.938V101.291Z" fill="#636463"/>
<path d="M0.713528 75.7522C2.96714 90.9302 12.9708 110.425 27.4666 118.904C27.6403 119.006 27.8161 119.098 27.9908 119.197C28.8585 119.685 29.7353 120.148 30.6331 120.554C35.8624 122.915 41.8399 124.163 47.9198 124.163C47.9218 124.163 47.9238 124.163 47.9238 124.163C49.0496 124.163 50.1704 124.108 51.2891 124.026C51.6366 124 51.9841 123.964 52.3306 123.931C53.134 123.854 53.9344 123.755 54.7318 123.637C55.0914 123.584 55.4509 123.535 55.8094 123.474C56.8569 123.293 57.8983 123.086 58.9307 122.835C59.1406 122.785 59.3475 122.722 59.5574 122.668C60.4552 122.437 61.345 122.181 62.2268 121.897C62.6184 121.772 63.0051 121.634 63.3927 121.499C64.0907 121.255 64.7806 120.994 65.4656 120.717C65.8392 120.567 66.2138 120.419 66.5833 120.259C67.5384 119.845 68.4824 119.406 69.4064 118.928C69.4475 118.908 69.4897 118.89 69.5299 118.869C69.6012 118.833 69.6705 118.791 69.7418 118.753C70.7802 118.207 71.8016 117.625 72.7948 117.001C72.8069 116.993 72.8199 116.985 72.832 116.978C73.8825 116.316 74.9068 115.612 75.9001 114.866C77.5702 113.61 79.1238 112.258 80.5639 110.826C80.6463 110.743 80.7256 110.658 80.808 110.575C81.3633 110.013 81.8956 109.437 82.4158 108.851C82.5896 108.655 82.7653 108.461 82.9351 108.262C83.4633 107.646 83.9725 107.018 84.4616 106.377C84.7548 105.992 85.032 105.596 85.3122 105.201C85.493 104.948 85.6717 104.694 85.8465 104.437C89.716 98.7222 92.1995 92.1192 93.0421 85.0652L93.1185 84.3982C93.5292 80.4042 93.3725 76.3982 92.7308 72.4802C91.8711 76.1532 90.2653 79.6482 87.9394 82.7672C83.4774 88.7512 76.9425 92.6462 69.5379 93.7362C68.4613 93.8962 67.3546 93.9922 66.2479 94.0252C64.9052 94.1472 63.4078 94.2132 61.9315 94.2132C52.1187 94.2132 42.6152 91.3692 34.4443 85.9872C25.7603 80.3992 19.2034 72.3332 15.5136 63.0072C15.4132 62.7542 15.3077 62.5022 15.2123 62.2482C15.0567 61.8362 14.9131 61.4202 14.7695 61.0032C14.6399 60.6292 14.5134 60.2552 14.3928 59.8772C14.2763 59.5102 14.1639 59.1422 14.0564 58.7722C13.9269 58.3292 13.8063 57.8822 13.6888 57.4332C13.6025 57.1022 13.5161 56.7712 13.4368 56.4372C13.3122 55.9152 13.2018 55.3872 13.0953 54.8572C13.0401 54.5852 12.9788 54.3142 12.9286 54.0392C12.78 53.2302 12.6474 52.4162 12.5389 51.5922C12.3783 50.3582 12.2728 49.1232 12.2045 47.8892C12.1824 47.4872 12.1824 47.0872 12.1704 46.6862C12.1433 45.8502 12.1272 45.0162 12.1423 44.1832C12.1513 43.7182 12.1734 43.2562 12.1945 42.7932C12.2296 42.0172 12.2798 41.2452 12.3501 40.4752C12.3933 40.0052 12.4395 39.5382 12.4948 39.0702C12.5892 38.2892 12.7057 37.5132 12.8342 36.7382C12.9065 36.3062 12.9708 35.8722 13.0541 35.4432C13.2269 34.5462 13.4328 33.6582 13.6537 32.7742C13.726 32.4832 13.7832 32.1892 13.8606 31.8992C14.1729 30.7352 14.5254 29.5852 14.9181 28.4512C15.0155 28.1682 15.133 27.8932 15.2354 27.6132C15.5458 26.7622 15.8701 25.9182 16.2257 25.0882C16.3954 24.6922 16.5802 24.3062 16.7589 23.9152C17.0833 23.2082 17.4177 22.5092 17.7743 21.8192C17.8707 21.6312 17.951 21.4332 18.0514 21.2472C4.33597 35.5382 -2.29429 55.4952 0.713528 75.7522Z" fill="#00A3DA"/>
<path d="M65.0434 130.904C79.9529 130.904 94.5582 125.749 106.17 116.392C118.12 106.763 129.858 88.332 129.869 71.623C129.87 71.359 129.861 71.099 129.856 70.837C129.835 69.871 129.792 68.907 129.689 67.955C129.588 67.021 129.448 66.091 129.276 65.165C129.252 65.034 129.218 64.904 129.193 64.773C129.03 63.942 128.849 63.113 128.632 62.292C128.625 62.265 128.617 62.239 128.61 62.213C125.648 51.096 117.808 40.984 107.451 34.886C107.242 34.765 107.031 34.645 106.82 34.526C106.177 34.161 105.526 33.811 104.865 33.478C104.669 33.379 104.474 33.281 104.278 33.184C103.445 32.779 102.602 32.393 101.744 32.04C96.4201 29.858 90.8203 28.751 85.1019 28.751C74.3852 28.751 64.2691 32.566 56.3292 39.243C59.09 38.355 61.9883 37.892 64.9138 37.892C73.4201 37.892 81.365 41.664 86.7117 48.242C87.4017 49.092 88.0484 49.99 88.6349 50.916C89.2084 51.706 89.817 52.614 90.3955 53.54L90.4296 53.523C90.8122 54.137 91.1778 54.759 91.5323 55.388C91.7793 55.826 92.0113 56.268 92.2443 56.71C92.3247 56.863 92.409 57.013 92.4864 57.167C101.662 74.994 99.1688 96.043 86.7188 110.855C86.6053 110.99 86.4878 111.122 86.3723 111.255C86.0198 111.666 85.6643 112.076 85.2947 112.477C85.0225 112.775 84.7393 113.066 84.4571 113.358C84.2342 113.589 84.0132 113.823 83.7843 114.05C83.3755 114.458 82.9547 114.856 82.5299 115.25C82.4124 115.358 82.2989 115.468 82.1814 115.575C81.6612 116.049 81.1279 116.511 80.5846 116.964C80.5485 116.994 80.5133 117.025 80.4772 117.055C80.2984 117.203 80.1267 117.358 79.9459 117.504C79.5392 117.832 79.1194 118.141 78.7026 118.456C78.6845 118.469 78.6685 118.483 78.6514 118.496C78.6454 118.5 78.6403 118.503 78.6353 118.507C77.5517 119.322 76.4359 120.09 75.2911 120.81C75.268 120.824 75.2459 120.838 75.2228 120.852C74.1241 121.54 73.0043 122.189 71.8574 122.784C71.7861 122.821 71.7168 122.862 71.6455 122.9C71.6405 122.902 71.6355 122.905 71.6304 122.908C70.5649 123.461 69.4753 123.965 68.3736 124.442C68.016 124.597 67.6545 124.739 67.295 124.885C66.4815 125.216 65.661 125.525 64.8325 125.814C64.4589 125.944 64.0883 126.077 63.7127 126.198C62.5728 126.566 61.4239 126.907 60.262 127.195C60.1354 127.227 60.0059 127.249 59.8784 127.28C58.7998 127.539 57.7131 127.757 56.6205 127.946C56.2328 128.013 55.8431 128.069 55.4535 128.127C54.5627 128.26 53.6699 128.369 52.7731 128.455C52.4135 128.489 52.056 128.531 51.6955 128.557C50.5215 128.645 49.3465 128.704 48.1694 128.71C53.6548 130.16 59.332 130.904 65.0383 130.904C65.0404 130.904 65.0414 130.904 65.0434 130.904Z" fill="#224C66"/>
<path d="M119.342 38.1632C122.656 41.3232 125.523 44.8892 127.838 48.7572C122.459 29.1282 108.073 12.8712 88.3794 5.26015C81.1566 2.46815 72.5017 0.931152 64.0085 0.931152C52.1801 0.931152 41.6994 3.79715 34.4927 9.00215C34.4896 9.00515 34.4856 9.00715 34.4816 9.01015C25.0936 15.7982 18.8108 26.9882 17.1427 38.9372C16.5863 42.9212 16.5431 46.9892 17.0684 51.0062C17.1909 51.9442 17.3526 52.8702 17.5344 53.7882C17.5886 54.0621 17.6519 54.3332 17.7111 54.6062C17.8567 55.2742 18.0154 55.9372 18.1922 56.5932C18.2635 56.8622 18.3358 57.1312 18.4131 57.3982C18.6371 58.1732 18.8801 58.9392 19.1452 59.6952C19.1824 59.8022 19.2145 59.9122 19.2527 60.0182C19.9205 61.8732 20.7109 63.6692 21.6127 65.3962C21.6389 65.4452 21.665 65.4941 21.6901 65.5432C25.3979 72.5771 30.9696 78.4772 37.7244 82.6482C37.7395 82.6582 37.7536 82.6652 37.7676 82.6752C40.3044 84.2372 43.0059 85.5572 45.838 86.6021C37.5939 79.0531 34.3671 66.9512 38.6594 55.9422C39.0541 54.9292 39.5161 53.9242 40.0333 52.9512C48.0575 35.4702 65.6957 24.0962 84.9096 24.0962C90.8901 24.0962 96.7681 25.1962 102.381 27.3652C103.675 27.8662 104.943 28.4442 106.194 29.0552C106.535 29.2192 106.87 29.3922 107.207 29.5632C107.477 29.7032 107.757 29.8282 108.024 29.9732C108.219 30.0762 108.402 30.1962 108.595 30.3022C109.264 30.6692 109.922 31.0502 110.573 31.4452C110.876 31.6302 111.178 31.8152 111.476 32.0062C112.198 32.4652 112.904 32.9422 113.599 33.4352C113.81 33.5852 114.022 33.7332 114.23 33.8862C115.004 34.4532 115.758 35.0412 116.495 35.6472C116.616 35.7462 116.736 35.8422 116.855 35.9412C117.678 36.6302 118.477 37.3432 119.252 38.0792C119.282 38.1072 119.313 38.1342 119.342 38.1632Z" fill="#286AA6"/>
</svg>
