<svg width="78" height="55" viewBox="0 0 78 55" fill="none" xmlns="http://www.w3.org/2000/svg">
<path d="M21.1102 54.9688H0L56 0.570312H77.1124L21.1102 54.9688Z" fill="url(#paint0_radial)"/>
<path d="M46.5821 26.1809H37.0641V30.2019H41.7321C40.8615 31.328 39.78 31.7897 38.4632 31.7897C35.5895 31.7897 34.2704 30.381 34.2704 27.5637C34.2704 25.1562 35.5362 23.5944 37.8036 23.5944C39.0161 23.5944 39.86 24.0302 40.3086 24.7205H46.4777C45.9248 20.8526 42.7336 18.3438 37.7769 18.3438C37.737 18.3438 37.697 18.3459 37.6593 18.3459L28.3433 27.3954C28.3433 27.4515 28.3389 27.5076 28.3389 27.5637C28.3389 32.9675 31.952 36.7836 37.8302 36.7836C38.7319 36.7836 39.558 36.6887 40.3108 36.5183L46.5821 30.4263V26.1809Z" fill="white"/>
<path d="M58.3962 31.5339C56.4197 31.5339 55.205 29.9721 55.205 27.5646C55.205 25.1572 56.4175 23.5953 58.3962 23.5953C59.7153 23.5953 60.8212 24.2878 61.3764 25.4915H67.5456C66.795 21.2871 63.5438 18.4525 58.7515 18.3555L49.2734 27.6099C49.2912 32.9922 52.7933 36.7889 58.5005 36.7889C63.4306 36.7889 66.7794 33.9198 67.5433 29.6442H61.3742C60.8212 30.8436 59.7153 31.5339 58.3962 31.5339Z" fill="#323E48"/>
<path d="M16.4154 30.152H16.442L19.6132 35.9506L23.686 31.9748L22.3225 29.7162C24.9851 28.8706 26.3575 26.8471 26.3575 24.4656C26.3575 21.137 23.9592 18.5225 19.2645 18.5225H10.5615V36.656H16.4154V30.152ZM16.4154 23.2877H18.736C19.8442 23.2877 20.4238 23.9026 20.4238 24.8237C20.4238 25.9001 19.8442 26.3596 18.736 26.3596H16.4154V23.2877Z" fill="#323E48"/>
<defs>
<radialGradient id="paint0_radial" cx="0" cy="0" r="1" gradientUnits="userSpaceOnUse" gradientTransform="translate(37.8228 27.7699) scale(24.9386 24.2254)">
<stop stop-color="#00B189"/>
<stop offset="0.0849" stop-color="#09B48D" stop-opacity="0.9151"/>
<stop offset="0.2237" stop-color="#22BB99" stop-opacity="0.7763"/>
<stop offset="0.3992" stop-color="#49C7AB" stop-opacity="0.6008"/>
<stop offset="0.6046" stop-color="#81D8C5" stop-opacity="0.3954"/>
<stop offset="0.8321" stop-color="#C7EEE5" stop-opacity="0.1679"/>
<stop offset="1" stop-color="white" stop-opacity="0"/>
</radialGradient>
</defs>
</svg>
